<svg xmlns="http://www.w3.org/2000/svg" width="45" height="45" viewBox="0 0 45 45"><rect width="45" height="45" fill="none"/><g transform="translate(6.995 11.991)"><path d="M29.054,305.27H1.007A1.008,1.008,0,0,0,0,306.278a12.887,12.887,0,0,0,12.872,12.872h4.316a12.888,12.888,0,0,0,12.873-12.873A1.007,1.007,0,0,0,29.054,305.27Zm0,0" transform="translate(0 -293.404)" fill="#515065" fill-rule="evenodd"/><path d="M62.647,137.213a3.257,3.257,0,0,0-2.13-3.689,3.256,3.256,0,0,0-3.263-2.738,3.257,3.257,0,0,0-4-1.457,3.257,3.257,0,0,0-4.26,0,3.257,3.257,0,0,0-4,1.457,3.256,3.256,0,0,0-3.263,2.738,3.257,3.257,0,0,0-2.13,3.689,3.183,3.183,0,0,0-.906,1.174H63.553A3.189,3.189,0,0,0,62.647,137.213ZM44.72,136.086a1.007,1.007,0,1,1,1.007-1.007A1.007,1.007,0,0,1,44.72,136.086Zm4.243-3.164a1.007,1.007,0,1,1,1.007-1.007A1.007,1.007,0,0,1,48.963,132.922Zm8.558,4.243a1.007,1.007,0,1,1,1.007-1.007A1.008,1.008,0,0,1,57.521,137.165Zm0,0" transform="translate(-36.09 -128.535)" fill="#3fc994" fill-rule="evenodd"/></g></svg>