<svg xmlns="http://www.w3.org/2000/svg" width="45" height="45" viewBox="0 0 45 45"><rect width="45" height="45" fill="none"/><g transform="translate(6 13.252)"><path d="M259.215,189.481h-29.3a1.323,1.323,0,0,0-1.366,1.268v.22a3.836,3.836,0,0,0,3.955,3.676h24.117a3.834,3.834,0,0,0,3.953-3.676v-.22A1.322,1.322,0,0,0,259.215,189.481Z" transform="translate(-228.553 -169.857)" fill="#515065"/><path d="M257.736,185.529H253.58l-1.295,2.112a.973.973,0,0,1-.832.448,1.016,1.016,0,0,1-.472-.116.856.856,0,0,1-.358-1.212l.756-1.232h-5.623l-1.293,2.11a.971.971,0,0,1-.832.45,1.009,1.009,0,0,1-.471-.116.855.855,0,0,1-.36-1.212l.756-1.232h-5.623l-1.293,2.11a.971.971,0,0,1-.832.45,1.022,1.022,0,0,1-.472-.116.856.856,0,0,1-.358-1.212l.754-1.232H231.4a2.649,2.649,0,1,0,0,5.284h26.341a2.649,2.649,0,1,0,0-5.284Z" transform="translate(-228.553 -173.611)" fill="#e8a931"/><path d="M252.241,179.426H236.892c-4.587,0-8.339,3.488-8.339,7.749a1.417,1.417,0,0,0,1.461,1.358h29.1a1.415,1.415,0,0,0,1.459-1.358C260.579,182.914,256.828,179.426,252.241,179.426Zm-18.631,6.489a.493.493,0,1,1,.528-.492A.51.51,0,0,1,233.61,185.915Zm3.38-2.882a.492.492,0,1,1,.528-.491A.51.51,0,0,1,236.99,183.033Zm4.86,2.389a.492.492,0,1,1,.528-.491A.509.509,0,0,1,241.85,185.422Zm6.182-2.389a.492.492,0,1,1,.53-.491A.51.51,0,0,1,248.032,183.033Zm4.487,2.882a.493.493,0,1,1,.528-.492A.51.51,0,0,1,252.519,185.915Zm2.006-2.389a.493.493,0,1,1,.53-.492A.512.512,0,0,1,254.525,183.526Z" transform="translate(-228.553 -179.426)" fill="#515065"/></g></svg>