<svg xmlns="http://www.w3.org/2000/svg" width="45" height="45" viewBox="0 0 45 45"><rect width="45" height="45" fill="none"/><g transform="translate(5.243 4.035)"><path d="M-2086.469-186.838h0a.775.775,0,0,1-.774-.775v-9.639a.784.784,0,0,1,.764-.784l.048,0a11.691,11.691,0,0,1,5.318,1.7,11.756,11.756,0,0,1,3.919,3.994.737.737,0,0,1,.071.591.79.79,0,0,1-.4.485l-8.6,4.341A.765.765,0,0,1-2086.469-186.838Zm3.279-7.2a1.052,1.052,0,0,0-1.051,1.051q0,.027,0,.054a1.051,1.051,0,0,0,1.05,1,1.052,1.052,0,0,0,1.052-1q0-.027,0-.054A1.053,1.053,0,0,0-2083.19-194.033Z" transform="translate(2106.668 202.81)" fill="#515065" stroke="rgba(0,0,0,0)" stroke-miterlimit="10" stroke-width="1"/><path d="M197.781,183.182a11.647,11.647,0,0,0-3.346.734.4.4,0,0,0-.189.569,3.21,3.21,0,0,1,.24,2.424,3.426,3.426,0,0,1-2.507,2.371,3.294,3.294,0,0,1-2.767-.624.4.4,0,0,0-.6.08,11.691,11.691,0,0,0,14.295,16.992.4.4,0,0,0,.19-.56,3.212,3.212,0,0,1-.2-2.346,3.437,3.437,0,0,1,2.447-2.349,3.217,3.217,0,0,1,2.677.513.4.4,0,0,0,.58-.1,11.623,11.623,0,0,0,.76-10.563.778.778,0,0,0-1.063-.371l-8.6,4.34a.774.774,0,0,1-1.122-.691v-9.644A.77.77,0,0,0,197.781,183.182Zm6.367,12.084a.773.773,0,0,1,1.093.042l1.836,1.983a.772.772,0,0,1-1.133,1.05l-1.836-1.982A.774.774,0,0,1,204.147,195.266Zm-13.72,1.6a.773.773,0,0,1-.175-1.526l2.631-.615a.773.773,0,1,1,.352,1.506l-2.631.615A.776.776,0,0,1,190.428,196.866Zm3.535,5.612a1.052,1.052,0,1,1,1.051-1.053A1.052,1.052,0,0,1,193.963,202.478Zm1.051-10.437a1.051,1.051,0,1,1,1.051-1.051A1.05,1.05,0,0,1,195.014,192.042Zm4.192,7.075,1.19,1.59a.772.772,0,0,1-.156,1.082.763.763,0,0,1-.462.155.777.777,0,0,1-.62-.311l-1.19-1.592a.773.773,0,0,1,1.238-.924Z" transform="translate(-182.113 -173.485)" fill="#515065"/><path d="M183.8,196.545a16.472,16.472,0,1,0,31.511-6.7.778.778,0,0,0-1.057-.362l-1.5.757a.779.779,0,0,0-.354,1.009,12.976,12.976,0,0,1,1.124,5.292,13.254,13.254,0,1,1-13.995-13.231.77.77,0,0,0,.743-.762v-1.676a.784.784,0,0,0-.807-.785A16.475,16.475,0,0,0,183.8,196.545Z" transform="translate(-183.797 -175.17)" fill="#dbcc12"/><path d="M196.364,177.69v1.679a.77.77,0,0,0,.745.762,13.161,13.161,0,0,1,7.738,3.062,13.313,13.313,0,0,1,2.983,3.549.77.77,0,0,0,1.016.318l1.495-.754a.781.781,0,0,0,.337-1.071,16.454,16.454,0,0,0-13.509-8.327A.781.781,0,0,0,196.364,177.69Z" transform="translate(-176.939 -176.907)" fill="#dbcc12"/></g></svg>