<svg xmlns="http://www.w3.org/2000/svg" width="45" height="45" viewBox="0 0 45 45"><rect width="45" height="45" fill="none"/><g transform="translate(-349.291 -105.329)"><path d="M378.866,135.058a17.818,17.818,0,0,0-4.6-6.458c.038.365.055.726.065,1.066a7.58,7.58,0,0,0,.117,1.36,4.739,4.739,0,0,0,.243.723,1.059,1.059,0,0,1-.477,1.325c.273.523.531,1.055.755,1.6a2.317,2.317,0,0,1-.224,2.181c-.024.036-.058.062-.084.095l2.919.016a1.39,1.39,0,0,0,1.391-1.388A1.406,1.406,0,0,0,378.866,135.058Z" transform="translate(12.118 3.798)" fill="#515065"/><path d="M385.331,135.055a4.775,4.775,0,0,1-.071-.565c-.074-.711-.06-1.45-.153-2.146a3.42,3.42,0,0,0-.272-1.02c-.021-.044-.058-.077-.082-.118-.567-1.042-1.769-1.695-2.5-2.62-.764-.968-1.105-2.372-2.066-3.148s-2.4-.807-3.512-1.352c-1.1-.534-2.012-1.655-3.227-1.938a2.974,2.974,0,0,0-.659-.073c-1,0-2.066.39-3.1.385s-2.091-.411-3.089-.417a3.055,3.055,0,0,0-.659.066c-1.219.272-2.146,1.38-3.247,1.906-1.118.532-2.563.554-3.525,1.317s-1.324,2.165-2.1,3.125-2.067,1.6-2.611,2.712c-.537,1.1-.253,2.51-.534,3.726a5.769,5.769,0,0,1-.3.881,18.726,18.726,0,0,1,32,.171A5.732,5.732,0,0,1,385.331,135.055Z" transform="translate(0.195 0)" fill="#f15d5c"/><path d="M373.713,130.711c-.074-.711-.06-1.45-.153-2.146C373.653,129.261,373.639,130,373.713,130.711Z" transform="translate(11.742 3.778)" fill="#515065"/><path d="M386.216,136.729c-.155-.379-.363-.728-.545-1.091s-.39-.73-.6-1.087a17.639,17.639,0,0,0-30.542-.137c-.2.346-.4.695-.581,1.055s-.395.709-.554,1.087a1.387,1.387,0,0,0,1.265,1.925l30.261.161a1.39,1.39,0,0,0,1.393-1.387A1.365,1.365,0,0,0,386.216,136.729Zm-21.524-.886h0a.518.518,0,1,1,.523-.516A.519.519,0,0,1,364.689,135.843Zm11.1-4.73v0h0v0a.57.57,0,1,1,1.14.006v0a.57.57,0,1,1-1.14-.006Zm-5.084,1.424h0v0h0a.57.57,0,1,1,1.14.006h0l0,0a.57.57,0,1,1-1.14-.006Zm6.962,2.836a.518.518,0,1,1-1.036,0h0v0h0a.518.518,0,1,1,1.036,0v0Z" transform="translate(0 2.102)" fill="#515065"/></g></svg>