<svg xmlns="http://www.w3.org/2000/svg" width="30" height="30" viewBox="0 0 30 30"><g transform="translate(-6800 -3715)"><rect width="30" height="30" transform="translate(6800 3715)" fill="none"/><g transform="translate(6517.064 3438.073)"><path d="M294.272,285.858h8.281a3.692,3.692,0,0,1,3.692,3.691h0v6.029a3.692,3.692,0,0,1-3.692,3.692h-8.463a3.489,3.489,0,0,1-3.51-3.692h0v-6.029a3.692,3.692,0,0,1,3.692-3.691Z" transform="translate(-0.089 -0.268)" fill="none"/><path d="M302.95,285.088v-.158a1.031,1.031,0,0,0-2.061,0v.109h-5.133v-.109a1.031,1.031,0,0,0-2.061,0v.158a4.234,4.234,0,0,0-3.753,4.194v6A4.04,4.04,0,0,0,294,299.553h8.463a4.248,4.248,0,0,0,4.243-4.243v-6.028A4.233,4.233,0,0,0,302.95,285.088Zm2.656,10.222a3.144,3.144,0,0,1-3.141,3.141H294a2.939,2.939,0,0,1-2.959-3.141v-6.028a3.145,3.145,0,0,1,3.141-3.141h8.281a3.144,3.144,0,0,1,3.141,3.141Z" fill="#8d8c9f"/><circle cx="1.265" cy="1.265" r="1.265" transform="translate(297.058 289.365)" fill="#8d8c9f"/><circle cx="0.884" cy="0.884" r="0.884" transform="translate(301.341 289.746)" fill="#8d8c9f"/><circle cx="0.884" cy="0.884" r="0.884" transform="translate(293.536 293.548)" fill="#8d8c9f"/><circle cx="0.884" cy="0.884" r="0.884" transform="translate(297.436 293.548)" fill="#8d8c9f"/></g></g></svg>