<svg xmlns="http://www.w3.org/2000/svg" width="35" height="35" viewBox="0 0 35 35"><g transform="translate(0.296 -10.816)"><g transform="translate(-0.295 10.816)"><g transform="translate(4.698 6.931)"><path d="M341.61,284.464a7.214,7.214,0,0,0-9.042,1.715,7.219,7.219,0,0,0-12.778,4.607,7.143,7.143,0,0,0,.356,2.226c1.04,4.676,9.091,10.376,11.646,12.084a1.392,1.392,0,0,0,1.551,0c2.554-1.707,10.6-7.407,11.64-12.083a7.113,7.113,0,0,0,.359-2.226A7.224,7.224,0,0,0,341.61,284.464Z" transform="translate(-319.79 -283.566)" fill="none" stroke="#fff" stroke-linecap="round" stroke-linejoin="round" stroke-width="2"/></g><rect width="35" height="35" transform="translate(0 0)" fill="none"/></g></g></svg>