<svg xmlns="http://www.w3.org/2000/svg" width="13.697" height="16.377" viewBox="0 0 13.697 16.377"><g transform="translate(0)"><path d="M-1831.152-2.623c-1.241,0-2.937-1.282-4.426-3.346A11.693,11.693,0,0,1-1838-12.152,6.856,6.856,0,0,1-1831.152-19a6.856,6.856,0,0,1,6.849,6.848,11.727,11.727,0,0,1-2.375,6.183C-1828.173-3.873-1829.845-2.623-1831.152-2.623Zm.059-13.282a2.273,2.273,0,0,0-2.271,2.271,2.273,2.273,0,0,0,2.271,2.271,2.274,2.274,0,0,0,2.271-2.271A2.274,2.274,0,0,0-1831.092-15.9Z" transform="translate(1838 19)" fill="#515065"/></g></svg>