<svg xmlns="http://www.w3.org/2000/svg" width="30" height="30" viewBox="0 0 30 30"><g transform="translate(-7130 -3231)"><rect width="30" height="30" transform="translate(7130 3231)" fill="none"/><g transform="translate(7137 3236)"><path d="M8.215,19.646c-1.488,0-3.523-1.538-5.31-4.014A14.026,14.026,0,0,1,0,8.215a8.215,8.215,0,0,1,16.431,0,14.069,14.069,0,0,1-2.849,7.417C11.788,18.146,9.782,19.646,8.215,19.646ZM8.287,3.713a2.724,2.724,0,1,0,2.724,2.724A2.727,2.727,0,0,0,8.287,3.713Z" transform="translate(0 0)" fill="none" stroke="#8d8c9f" stroke-width="1.5"/></g></g></svg>