<svg xmlns="http://www.w3.org/2000/svg" width="57" height="57" viewBox="0 0 57 57"><g transform="translate(-37 -313)"><g transform="translate(94 313) rotate(90)" fill="#fff" stroke="#efefef" stroke-width="1"><rect width="57" height="57" rx="10" stroke="none"/><rect x="0.5" y="0.5" width="56" height="56" rx="9.5" fill="none"/></g><g transform="translate(52.715 324.986)"><path d="M-3922.109-2703.307h-16.757a4.853,4.853,0,0,1-4.849-4.847v-21.984a4.854,4.854,0,0,1,4.849-4.848h16.757a4.854,4.854,0,0,1,4.85,4.848v.2h.417a1.71,1.71,0,0,1,1.707,1.708,1.709,1.709,0,0,1-1.707,1.707h-.417v2.762h.417a1.709,1.709,0,0,1,1.707,1.707,1.71,1.71,0,0,1-1.707,1.708h-.417v2.762h.417a1.709,1.709,0,0,1,1.707,1.707,1.71,1.71,0,0,1-1.707,1.708h-.417v2.762h.417a1.709,1.709,0,0,1,1.707,1.707,1.71,1.71,0,0,1-1.707,1.708h-.436A4.825,4.825,0,0,1-3922.109-2703.307Zm-11.521-7.221a.855.855,0,0,0-.854.854.855.855,0,0,0,.854.854h6.287a.855.855,0,0,0,.854-.854.855.855,0,0,0-.854-.854Zm-1.259-10.45a.855.855,0,0,0-.854.854v2.075a5.263,5.263,0,0,0,5.257,5.257,5.262,5.262,0,0,0,5.256-5.257v-2.075a.855.855,0,0,0-.854-.854Zm4.627-8.52a.858.858,0,0,0-.464.136.845.845,0,0,0-.371.538.845.845,0,0,0,.12.644l.261.4a.924.924,0,0,1-.095,1.12l-.177.19a2.64,2.64,0,0,0-.109,3.427l.171.213a.847.847,0,0,0,.666.32.847.847,0,0,0,.532-.19.846.846,0,0,0,.315-.573.852.852,0,0,0-.183-.628l-.173-.215a.914.914,0,0,1,.041-1.2l.174-.189a2.633,2.633,0,0,0,.27-3.207l-.26-.4A.854.854,0,0,0-3930.263-2729.5Zm-.224,15a3.552,3.552,0,0,1-3.548-3.548v-1.221h7.1v1.221A3.552,3.552,0,0,1-3930.487-2714.5Z" transform="translate(3943.715 2734.985)" fill="#f15d5c" stroke="rgba(0,0,0,0)" stroke-miterlimit="10" stroke-width="1"/></g></g></svg>