<svg xmlns="http://www.w3.org/2000/svg" width="57" height="57" viewBox="0 0 57 57"><g transform="translate(-94 -286)"><g transform="translate(151 286) rotate(90)" fill="#fff" stroke="#efefef" stroke-width="1"><rect width="57" height="57" rx="10" stroke="none"/><rect x="0.5" y="0.5" width="56" height="56" rx="9.5" fill="none"/></g><path d="M22.048,62.533a2.031,2.031,0,0,0-3.071,0c-.718.712-1.436,1.424-2.142,2.148a.423.423,0,0,1-.591.109c-.465-.253-.959-.459-1.406-.736a22.273,22.273,0,0,1-5.37-4.887,12.721,12.721,0,0,1-1.925-3.083.442.442,0,0,1,.109-.567c.718-.694,1.418-1.406,2.124-2.118a2.039,2.039,0,0,0-.006-3.143c-.561-.567-1.122-1.122-1.683-1.689-.579-.579-1.152-1.164-1.738-1.738a2.044,2.044,0,0,0-3.071.006c-.724.712-1.418,1.442-2.154,2.142a3.5,3.5,0,0,0-1.1,2.359,9.995,9.995,0,0,0,.772,4.3,26.14,26.14,0,0,0,4.64,7.729A28.711,28.711,0,0,0,14.947,70.8a13.751,13.751,0,0,0,5.267,1.532,3.86,3.86,0,0,0,3.312-1.261c.615-.688,1.309-1.315,1.961-1.973a2.052,2.052,0,0,0,.012-3.125Q23.779,64.25,22.048,62.533Z" transform="translate(109.095 255.107)" fill="#549dc4"/></g></svg>