<svg xmlns="http://www.w3.org/2000/svg" width="57" height="57" viewBox="0 0 57 57"><g transform="translate(-94 -286)"><g transform="translate(151 286) rotate(90)" fill="#fff" stroke="#efefef" stroke-width="1"><rect width="57" height="57" rx="10" stroke="none"/><rect x="0.5" y="0.5" width="56" height="56" rx="9.5" fill="none"/></g><path d="M22.21,9.722,13.087.6a1.736,1.736,0,0,0-1.2-.6c-.559,0-1.211.419-1.211,1.6V7.224A11.471,11.471,0,0,0,.653,22.483a.672.672,0,0,0,1.267,0,10.159,10.159,0,0,1,8.751-6.716v5.566c0,1.179.652,1.6,1.211,1.6h0a1.736,1.736,0,0,0,1.2-.6l9.124-9.124a2.471,2.471,0,0,0,0-3.487Zm0,0" transform="translate(111.533 301.535)" fill="#24b488"/></g></svg>