<svg xmlns="http://www.w3.org/2000/svg" width="10.491" height="10.031" viewBox="0 0 10.491 10.031"><path d="M240.682,204.2a.549.549,0,0,0-.3-.936l-2.674-.388a.551.551,0,0,1-.413-.3l-1.2-2.424a.549.549,0,0,0-.984,0l-1.2,2.424a.549.549,0,0,1-.413.3l-2.674.388a.549.549,0,0,0-.3.936l1.935,1.886a.547.547,0,0,1,.158.485l-.457,2.664a.548.548,0,0,0,.8.578l2.392-1.257a.548.548,0,0,1,.511,0l2.392,1.257a.548.548,0,0,0,.8-.578l-.456-2.664a.547.547,0,0,1,.158-.485Z" transform="translate(-230.358 -199.846)" fill="#dbcc12"/></svg>