<svg xmlns="http://www.w3.org/2000/svg" width="15.792" height="15.1" viewBox="0 0 15.792 15.1"><path d="M245.9,206.4a.826.826,0,0,0-.457-1.408l-4.026-.585a.829.829,0,0,1-.622-.452l-1.8-3.648a.826.826,0,0,0-1.481,0l-1.8,3.648a.827.827,0,0,1-.622.452l-4.025.585a.826.826,0,0,0-.458,1.408l2.913,2.839a.824.824,0,0,1,.237.731l-.688,4.01a.825.825,0,0,0,1.2.869l3.6-1.892a.825.825,0,0,1,.769,0l3.6,1.892a.825.825,0,0,0,1.2-.869l-.687-4.01a.824.824,0,0,1,.238-.731Z" transform="translate(-230.358 -199.846)" fill="#fff"/></svg>