<svg xmlns="http://www.w3.org/2000/svg" width="30" height="30" viewBox="0 0 30 30"><path d="M530.041,344.661a15,15,0,0,1-21.162,21.162l3.916-3.917a9.482,9.482,0,0,0,13.329-13.329Zm-19.9,14.841a12.656,12.656,0,0,1-1.338-14.4,13.38,13.38,0,0,0-.981,16.72Zm2.435-9.281a2.149,2.149,0,1,1,4.149,1.112A2.149,2.149,0,1,1,512.579,350.221Zm8.141,7.459a2.149,2.149,0,1,1,4.149,1.112A2.149,2.149,0,1,1,520.72,357.68Zm-12.03-14.325a15,15,0,0,1,19.879-.166l-2.383,2.383-1.225,1.225-.309.309-13.329,13.329h0l-3.917,3.917a15,15,0,0,1,.166-19.879l-.156-.156a.416.416,0,0,0-.349-.133s-.311-.007-.936.019c-.425.018-.529-.12-.388-.4a5.938,5.938,0,0,1,2.276-2.276c.281-.14.419-.036.4.388-.027.626-.019.936-.019.936a.416.416,0,0,0,.133.349Z" transform="translate(-503.724 -339.506)" fill="#efefef" fill-rule="evenodd"/></svg>