<svg xmlns="http://www.w3.org/2000/svg" width="30" height="30" viewBox="0 0 30 30"><rect width="30" height="30" fill="none"/><g transform="matrix(0.875, 0.485, -0.485, 0.875, -123.526, -294.375)"><path d="M278.81,198l-5.9-4.541a2.369,2.369,0,0,0-2.89,0l-5.9,4.541a2.371,2.371,0,0,0-.924,1.878v11.6a2.369,2.369,0,0,0,2.369,2.369h11.8a2.369,2.369,0,0,0,2.369-2.369v-11.6A2.373,2.373,0,0,0,278.81,198Z" fill="#f8f8f8" stroke="#515065" stroke-width="1"/><g transform="translate(267.797 201.22)"><circle cx="1.205" cy="1.205" r="1.205" transform="translate(0.019 0.019)" fill="#515065" stroke="rgba(0,0,0,0)" stroke-width="1"/><circle cx="1.205" cy="1.205" r="1.205" transform="translate(5.01 5.01)" fill="#515065" stroke="rgba(0,0,0,0)" stroke-width="1"/><path d="M268.041,208.136a.533.533,0,0,1-.378-.911l6.372-6.371a.534.534,0,0,1,.755.755l-6.372,6.371A.532.532,0,0,1,268.041,208.136Z" transform="translate(-267.507 -200.698)" fill="#515065" stroke="rgba(0,0,0,0)" stroke-width="1"/></g></g></svg>