<svg xmlns="http://www.w3.org/2000/svg" width="30" height="30" viewBox="0 0 30 30"><g transform="translate(-314.79 -276.566)"><g transform="translate(0.265 0.077)"><path d="M336.315,284.246a5.463,5.463,0,0,0-6.848,1.3,5.467,5.467,0,0,0-9.677,3.489,5.409,5.409,0,0,0,.27,1.686c.788,3.541,6.885,7.858,8.82,9.152a1.054,1.054,0,0,0,1.174,0c1.934-1.293,8.027-5.61,8.816-9.151a5.385,5.385,0,0,0,.272-1.686A5.471,5.471,0,0,0,336.315,284.246Z" fill="#f15d5c"/></g><rect width="30" height="30" transform="translate(314.79 276.566)" fill="none"/></g></svg>