<svg xmlns="http://www.w3.org/2000/svg" width="30" height="30" viewBox="0 0 30 30"><g transform="translate(-284.936 -277.928)"><path d="M294.869,285.858h9.618a4.287,4.287,0,0,1,4.288,4.287h0v7a4.288,4.288,0,0,1-4.288,4.288h-9.829a4.052,4.052,0,0,1-4.077-4.288h0v-7a4.287,4.287,0,0,1,4.288-4.287Z" fill="#f8f8f8"/><path d="M305.05,285.275v-.184a1.2,1.2,0,0,0-2.394,0v.127H296.7v-.127a1.2,1.2,0,0,0-2.394,0v.184a4.918,4.918,0,0,0-4.359,4.871v6.968a4.692,4.692,0,0,0,4.716,4.961h9.829a4.934,4.934,0,0,0,4.928-4.928v-7A4.917,4.917,0,0,0,305.05,285.275Zm3.085,11.872a3.652,3.652,0,0,1-3.648,3.648h-9.829a3.414,3.414,0,0,1-3.437-3.648v-7a3.652,3.652,0,0,1,3.648-3.648h9.618a3.652,3.652,0,0,1,3.648,3.648Z" fill="#515065"/><circle cx="1.469" cy="1.469" r="1.469" transform="translate(298.207 290.243)" fill="#515065"/><circle cx="1.027" cy="1.027" r="1.027" transform="translate(303.182 290.686)" fill="#515065"/><circle cx="1.027" cy="1.027" r="1.027" transform="translate(294.118 295.101)" fill="#515065"/><circle cx="1.027" cy="1.027" r="1.027" transform="translate(298.647 295.101)" fill="#515065"/></g><rect width="30" height="30" fill="none"/></svg>