<svg xmlns="http://www.w3.org/2000/svg" width="30" height="30" viewBox="0 0 30 30"><g transform="translate(-284.936 -277.928)"><path d="M-3311.342-435.925a4.684,4.684,0,0,1-3.432-1.459,4.7,4.7,0,0,1-1.284-3.5v-6.969a4.918,4.918,0,0,1,4.36-4.871v-.184a1.2,1.2,0,0,1,1.162-1.163,1.2,1.2,0,0,1,1.232,1.163v.127h5.961v-.127a1.2,1.2,0,0,1,1.162-1.163,1.2,1.2,0,0,1,1.232,1.163v.184a4.917,4.917,0,0,1,4.365,4.871v7a4.934,4.934,0,0,1-4.928,4.928Zm3.99-5.947a1.028,1.028,0,0,0,1.027,1.027,1.028,1.028,0,0,0,1.027-1.027,1.028,1.028,0,0,0-1.027-1.027A1.028,1.028,0,0,0-3307.353-441.872Zm-4.53,0a1.028,1.028,0,0,0,1.027,1.027,1.028,1.028,0,0,0,1.027-1.027,1.028,1.028,0,0,0-1.027-1.027A1.028,1.028,0,0,0-3311.882-441.872Zm4.09-4.415a1.472,1.472,0,0,0,1.469,1.47,1.472,1.472,0,0,0,1.47-1.47,1.471,1.471,0,0,0-1.47-1.47A1.471,1.471,0,0,0-3307.792-446.288Zm4.975,0a1.028,1.028,0,0,0,1.027,1.027,1.028,1.028,0,0,0,1.027-1.027,1.028,1.028,0,0,0-1.027-1.027A1.028,1.028,0,0,0-3302.817-446.288Z" transform="translate(3606 738)" fill="#f15d5c" stroke="rgba(0,0,0,0)" stroke-miterlimit="10" stroke-width="1"/></g><rect width="30" height="30" fill="none"/></svg>